# Blender 4.0.2
# www.blender.org
mtllib mob1.mtl
o Mob1
v -0.000000 -1.644814 -1.160063
v 0.000000 2.068059 -0.544887
v 0.820288 -1.644814 -0.820288
v 0.385293 2.068059 -0.385293
v 1.160063 -1.644814 0.000000
v 0.544887 2.068059 0.000000
v 0.820288 -1.644814 0.820288
v 0.385293 2.068059 0.385293
v -0.000000 -1.644814 1.160063
v 0.000000 2.068059 0.544887
v -0.820288 -1.644814 0.820288
v -0.385293 2.068059 0.385293
v -1.160063 -1.644814 0.000000
v -0.544887 2.068059 0.000000
v -0.820288 -1.644814 -0.820288
v -0.385293 2.068059 -0.385293
v 0.988507 1.397960 -0.988507
v 0.000000 1.397960 -1.397960
v 1.397960 1.397960 0.000000
v 0.988507 1.397960 0.988507
v 0.000000 1.397960 1.397960
v -0.988507 1.397960 0.988507
v -1.397960 1.397960 0.000000
v -0.988507 1.397960 -0.988507
v 0.696343 1.974160 -0.696343
v 0.000000 1.974160 -0.984778
v 0.984778 1.974160 0.000000
v 0.696343 1.974160 0.696343
v 0.000000 1.974160 0.984778
v -0.696343 1.974160 0.696343
v -0.984778 1.974160 0.000000
v -0.696343 1.974160 -0.696343
v 0.000000 -0.928801 -1.520671
v 1.075277 -0.928801 -1.075277
v 1.520671 -0.928801 -0.000000
v 1.075277 -0.928801 1.075277
v 0.000000 -0.928801 1.520671
v -1.075277 -0.928801 1.075277
v -1.520671 -0.928801 -0.000000
v -1.075277 -0.928801 -1.075277
v -0.000000 -2.379573 -0.399355
v 0.282386 -2.379573 -0.282386
v 0.399355 -2.379573 0.000000
v 0.282386 -2.379573 0.282386
v -0.000000 -2.379573 0.399355
v -0.282386 -2.379573 0.282386
v -0.399355 -2.379573 0.000000
v -0.282386 -2.379573 -0.282386
vn 0.3822 0.0487 -0.9228
vn 0.9228 0.0487 -0.3822
vn 0.9228 0.0487 0.3822
vn 0.3822 0.0487 0.9228
vn -0.3822 0.0487 0.9228
vn -0.9228 0.0487 0.3822
vn -0.0000 1.0000 -0.0000
vn -0.9228 0.0487 -0.3822
vn -0.3822 0.0487 -0.9228
vn 0.2765 -0.6912 0.6676
vn 0.3190 0.5523 -0.7702
vn 0.7702 0.5523 -0.3190
vn 0.7702 0.5523 0.3190
vn 0.3190 0.5523 0.7702
vn -0.3190 0.5523 0.7702
vn -0.7702 0.5523 0.3190
vn -0.7702 0.5523 -0.3190
vn -0.3190 0.5523 -0.7702
vn 0.0861 0.9743 -0.2080
vn 0.2080 0.9743 -0.0861
vn 0.2080 0.9743 0.0861
vn 0.0861 0.9743 0.2080
vn -0.0861 0.9743 0.2080
vn -0.2080 0.9743 0.0861
vn -0.2080 0.9743 -0.0861
vn -0.0861 0.9743 -0.2080
vn -0.3470 -0.4219 -0.8376
vn -0.8376 -0.4219 -0.3470
vn -0.8376 -0.4219 0.3470
vn -0.3470 -0.4219 0.8376
vn 0.3470 -0.4219 0.8376
vn 0.8376 -0.4219 0.3470
vn 0.8376 -0.4219 -0.3470
vn 0.3470 -0.4219 -0.8376
vn -0.0000 -1.0000 -0.0000
vn -0.6676 -0.6912 -0.2765
vn 0.6676 -0.6912 -0.2765
vn -0.2765 -0.6912 0.6676
vn -0.2765 -0.6912 -0.6676
vn 0.2765 -0.6912 -0.6676
vn 0.6676 -0.6912 0.2765
vn -0.6676 -0.6912 0.2765
vt 1.000000 0.750000
vt 1.000000 1.000000
vt 0.875000 1.000000
vt 0.875000 0.750000
vt 0.750000 1.000000
vt 0.750000 0.750000
vt 0.625000 1.000000
vt 0.625000 0.750000
vt 0.500000 1.000000
vt 0.500000 0.750000
vt 0.375000 1.000000
vt 0.375000 0.750000
vt 0.250000 1.000000
vt 0.250000 0.750000
vt 0.316147 0.316147
vt 0.250000 0.343545
vt 0.183853 0.316147
vt 0.156454 0.250000
vt 0.183853 0.183853
vt 0.250000 0.156454
vt 0.316147 0.183853
vt 0.343546 0.250000
vt 0.125000 1.000000
vt 0.125000 0.750000
vt 0.000000 1.000000
vt 0.000000 0.750000
vt 0.625000 0.500000
vt 0.500000 0.500000
vt 0.250000 0.419065
vt 0.369547 0.369547
vt 0.419706 0.419706
vt 0.250000 0.490000
vt 0.419065 0.250000
vt 0.490000 0.250000
vt 0.369547 0.130453
vt 0.419706 0.080294
vt 0.250000 0.080935
vt 0.250000 0.010000
vt 0.130453 0.130453
vt 0.080294 0.080294
vt 0.080935 0.250000
vt 0.010000 0.250000
vt 0.130453 0.369547
vt 0.080294 0.419706
vt 0.125000 0.500000
vt 0.000000 0.500000
vt 0.250000 0.500000
vt 0.375000 0.500000
vt 0.750000 0.500000
vt 0.875000 0.500000
vt 1.000000 0.500000
vt 0.750000 0.490000
vt 0.919706 0.419706
vt 0.990000 0.250000
vt 0.919706 0.080294
vt 0.750000 0.010000
vt 0.580294 0.080294
vt 0.510000 0.250000
vt 0.580294 0.419706
s 0
f 33/1/1 18/2/1 17/3/1 34/4/1
f 34/4/2 17/3/2 19/5/2 35/6/2
f 35/6/3 19/5/3 20/7/3 36/8/3
f 36/8/4 20/7/4 21/9/4 37/10/4
f 37/10/5 21/9/5 22/11/5 38/12/5
f 38/12/6 22/11/6 23/13/6 39/14/6
f 4/15/7 2/16/7 16/17/7 14/18/7 12/19/7 10/20/7 8/21/7 6/22/7
f 39/14/8 23/13/8 24/23/8 40/24/8
f 40/24/9 24/23/9 18/25/9 33/26/9
f 7/27/10 9/28/10 45/28/10 44/27/10
f 26/29/11 25/30/11 17/31/11 18/32/11
f 25/30/12 27/33/12 19/34/12 17/31/12
f 27/33/13 28/35/13 20/36/13 19/34/13
f 28/35/14 29/37/14 21/38/14 20/36/14
f 29/37/15 30/39/15 22/40/15 21/38/15
f 30/39/16 31/41/16 23/42/16 22/40/16
f 31/41/17 32/43/17 24/44/17 23/42/17
f 32/43/18 26/29/18 18/32/18 24/44/18
f 2/16/19 4/15/19 25/30/19 26/29/19
f 4/15/20 6/22/20 27/33/20 25/30/20
f 6/22/21 8/21/21 28/35/21 27/33/21
f 8/21/22 10/20/22 29/37/22 28/35/22
f 10/20/23 12/19/23 30/39/23 29/37/23
f 12/19/24 14/18/24 31/41/24 30/39/24
f 14/18/25 16/17/25 32/43/25 31/41/25
f 16/17/26 2/16/26 26/29/26 32/43/26
f 15/45/27 40/24/27 33/26/27 1/46/27
f 13/47/28 39/14/28 40/24/28 15/45/28
f 11/48/29 38/12/29 39/14/29 13/47/29
f 9/28/30 37/10/30 38/12/30 11/48/30
f 7/27/31 36/8/31 37/10/31 9/28/31
f 5/49/32 35/6/32 36/8/32 7/27/32
f 3/50/33 34/4/33 35/6/33 5/49/33
f 1/51/34 33/1/34 34/4/34 3/50/34
f 41/52/35 42/53/35 43/54/35 44/55/35 45/56/35 46/57/35 47/58/35 48/59/35
f 13/47/36 15/45/36 48/45/36 47/47/36
f 3/50/37 5/49/37 43/49/37 42/50/37
f 9/28/38 11/48/38 46/48/38 45/28/38
f 15/45/39 1/46/39 41/46/39 48/45/39
f 1/51/40 3/50/40 42/50/40 41/51/40
f 5/49/41 7/27/41 44/27/41 43/49/41
f 11/48/42 13/47/42 47/47/42 46/48/42
