# Blender 4.0.2
# www.blender.org
mtllib tower.mtl
o Tower_Base
v 0.000000 0.000000 -1.000000
v 0.000000 1.800000 -1.000000
v 0.707107 0.000000 -0.707107
v 0.707107 1.800000 -0.707107
v 1.000000 0.000000 0.000000
v 1.000000 1.800000 0.000000
v 0.707107 0.000000 0.707107
v 0.707107 1.800000 0.707107
v 0.000000 0.000000 1.000000
v 0.000000 1.800000 1.000000
v -0.707107 0.000000 0.707107
v -0.707107 1.800000 0.707107
v -1.000000 0.000000 0.000000
v -1.000000 1.800000 0.000000
v -0.707107 0.000000 -0.707107
v -0.707107 1.800000 -0.707107
v -0.000000 0.353129 -0.607635
v -0.000000 3.746871 -0.607635
v 0.429663 0.353129 -0.429663
v 0.429663 3.746871 -0.429663
v 0.607635 0.353129 0.000000
v 0.607635 3.746871 0.000000
v 0.429663 0.353129 0.429663
v 0.429663 3.746871 0.429663
v -0.000000 0.353129 0.607635
v -0.000000 3.746871 0.607635
v -0.429663 0.353129 0.429663
v -0.429663 3.746871 0.429663
v -0.607635 0.353129 0.000000
v -0.607635 3.746871 0.000000
v -0.429663 0.353129 -0.429663
v -0.429663 3.746871 -0.429663
v -0.446561 2.753439 0.446561
v -0.446561 3.646561 0.446561
v 0.446561 2.753439 0.446561
v 0.446561 3.646561 0.446561
v -0.446561 2.753439 3.446561
v -0.446561 3.646561 3.446561
v 0.446561 2.753439 3.446561
v 0.446561 3.646561 3.446561
vn 0.3827 -0.0000 -0.9239
vn 0.9239 -0.0000 -0.3827
vn 0.9239 -0.0000 0.3827
vn 0.3827 -0.0000 0.9239
vn -0.3827 -0.0000 0.9239
vn -0.9239 -0.0000 0.3827
vn -0.0000 1.0000 -0.0000
vn -0.9239 -0.0000 -0.3827
vn -0.3827 -0.0000 -0.9239
vn -0.0000 -1.0000 -0.0000
vn -1.0000 -0.0000 -0.0000
vn -0.0000 -0.0000 1.0000
vn 1.0000 -0.0000 -0.0000
vt 0.341585 1.000000
vt 0.341585 0.742627
vt 0.451021 0.742627
vt 0.451021 1.000000
vt 0.729114 0.686328
vt 0.729114 0.428955
vt 0.815885 0.428955
vt 0.815885 0.686328
vt 0.924395 0.428955
vt 0.924395 0.686328
vt 0.264202 0.742627
vt 0.264202 0.485254
vt 0.365307 0.485254
vt 0.365307 0.742627
vt 0.466413 0.485254
vt 0.466413 0.742627
vt 0.729114 0.943701
vt 0.729114 0.686328
vt 0.815885 0.686328
vt 0.815885 0.943701
vt 0.264202 0.562637
vt 0.264202 0.672073
vt 0.186819 0.749456
vt 0.077383 0.749456
vt -0.000000 0.672073
vt -0.000000 0.562637
vt 0.077383 0.485254
vt 0.186819 0.485254
vt 0.924395 0.686328
vt 0.924395 0.943701
vt 0.264202 1.000000
vt 0.264202 0.742627
vt 0.993316 0.186819
vt 0.915933 0.264202
vt 0.806497 0.264202
vt 0.729114 0.186819
vt 0.729114 0.077383
vt 0.806497 -0.000000
vt 0.915933 -0.000000
vt 0.993316 0.077383
vt 0.407211 0.485254
vt 0.407211 0.000000
vt 0.473708 0.000000
vt 0.473708 0.485254
vt 0.122871 0.485254
vt 0.122871 0.000000
vt 0.175596 0.000000
vt 0.175596 0.485254
vt 0.241530 0.000000
vt 0.241530 0.485254
vt 0.000000 0.485254
vt 0.000000 0.000000
vt 0.061435 0.000000
vt 0.061435 0.485254
vt 0.294255 0.000000
vt 0.294255 0.485254
vt 0.889652 0.311222
vt 0.889652 0.377719
vt 0.842631 0.424740
vt 0.776134 0.424740
vt 0.729114 0.377719
vt 0.729114 0.311222
vt 0.776134 0.264202
vt 0.842631 0.264202
vt 0.360190 0.000000
vt 0.360190 0.485254
vt 0.360190 0.485254
vt 0.360190 0.000000
vt 0.160538 0.862974
vt 0.113518 0.909994
vt 0.047021 0.909994
vt 0.000000 0.862974
vt 0.000000 0.796476
vt 0.047021 0.749456
vt 0.113518 0.749456
vt 0.160538 0.796476
vt 0.473708 0.428955
vt 0.601411 0.428955
vt 0.601411 0.843209
vt 0.473708 0.843209
vt 0.601411 0.970912
vt 0.473708 0.970912
vt 0.473708 0.843209
vt 0.601411 0.843209
vt 0.601411 0.428955
vt 0.473708 0.428955
vt 0.473708 0.000000
vt 0.601411 0.000000
vt 0.729114 0.428955
vt 0.729114 0.000000
vt 0.729114 0.843209
vt 0.601411 0.428955
vt 0.729114 0.428955
s 0
usemtl Material
f 1/1/1 2/2/1 4/3/1 3/4/1
f 3/5/2 4/6/2 6/7/2 5/8/2
f 5/8/3 6/7/3 8/9/3 7/10/3
f 7/11/4 8/12/4 10/13/4 9/14/4
f 9/14/5 10/13/5 12/15/5 11/16/5
f 11/17/6 12/18/6 14/19/6 13/20/6
f 4/21/7 2/22/7 16/23/7 14/24/7 12/25/7 10/26/7 8/27/7 6/28/7
f 13/20/8 14/19/8 16/29/8 15/30/8
f 15/31/9 16/32/9 2/2/9 1/1/9
f 1/33/10 3/34/10 5/35/10 7/36/10 9/37/10 11/38/10 13/39/10 15/40/10
f 17/41/1 18/42/1 20/43/1 19/44/1
f 19/45/2 20/46/2 22/47/2 21/48/2
f 21/48/3 22/47/3 24/49/3 23/50/3
f 23/51/4 24/52/4 26/53/4 25/54/4
f 25/54/5 26/53/5 28/46/5 27/45/5
f 27/50/6 28/49/6 30/55/6 29/56/6
f 20/57/7 18/58/7 32/59/7 30/60/7 28/61/7 26/62/7 24/63/7 22/64/7
f 29/56/8 30/55/8 32/65/8 31/66/8
f 31/67/9 32/68/9 18/42/9 17/41/9
f 17/69/10 19/70/10 21/71/10 23/72/10 25/73/10 27/74/10 29/75/10 31/76/10
f 34/77/11 33/78/11 37/79/11 38/80/11
f 39/81/12 40/82/12 38/83/12 37/84/12
f 33/85/10 35/86/10 39/87/10 37/88/10
f 36/89/7 34/85/7 38/88/7 40/90/7
f 35/91/13 36/79/13 40/92/13 39/93/13
