# Blender 4.0.2
# www.blender.org
mtllib buildings.mtl
o Buildings
v 0.200617 -0.977011 21.119183
v 0.200617 11.931179 21.119183
v 1.858479 -0.977011 14.017967
v 1.858479 11.931179 14.017967
v 7.301833 -0.977011 22.777046
v 7.301833 11.931179 22.777046
v 8.959696 -0.977011 15.675830
v 8.959696 11.931179 15.675830
v -35.104431 -0.977011 -18.121964
v -35.104431 16.663145 -18.121964
v -35.104431 -0.977011 -25.414139
v -35.104431 16.663145 -25.414139
v -27.812258 -0.977011 -18.121964
v -27.812258 16.663145 -18.121964
v -27.812250 -0.977011 -25.414139
v -27.812250 16.663145 -25.414139
v -26.620066 -0.977011 -15.453625
v -26.620066 12.235787 -15.453625
v -26.620062 -0.977011 -22.745800
v -26.620062 12.235787 -22.745800
v -19.327894 -0.977011 -15.453629
v -19.327894 12.235787 -15.453629
v -19.327890 -0.977011 -22.745800
v -19.327890 12.235787 -22.745800
v -39.064079 -0.977011 -10.059671
v -39.064079 11.132073 -10.059671
v -36.437851 -0.977011 -16.862518
v -36.437851 11.132073 -16.862518
v -32.261230 -0.977011 -7.433437
v -32.261230 11.132073 -7.433437
v -29.635000 -0.977011 -14.236282
v -29.635000 11.132073 -14.236282
v -17.539192 -0.977011 -4.937265
v -17.539192 18.165087 -4.937265
v -20.199476 -0.977011 -11.726864
v -20.199476 18.165087 -11.726864
v -10.749592 -0.977011 -7.597551
v -10.749592 18.165087 -7.597551
v -13.409876 -0.977011 -14.387150
v -13.409876 18.165087 -14.387150
v 29.684244 -0.977011 -17.188995
v 29.684244 24.802488 -17.188995
v 26.853048 -0.977011 -23.909126
v 26.853048 24.802488 -23.909126
v 36.404373 -0.977011 -20.020195
v 36.404373 24.802488 -20.020195
v 33.573174 -0.977011 -26.740326
v 33.573174 24.802488 -26.740326
v -12.609974 -0.977011 -18.969692
v -12.609974 11.931179 -18.969692
v -15.704489 -0.977011 -25.572704
v -15.704489 11.931179 -25.572704
v -6.006962 -0.977011 -22.064213
v -6.006962 11.931179 -22.064213
v -9.101479 -0.977011 -28.667225
v -9.101479 11.931179 -28.667225
v 2.015965 -0.977011 -22.032707
v 2.015965 11.931179 -22.032707
v 3.550935 -0.977011 -29.161499
v 3.550935 11.931179 -29.161499
v 9.144756 -0.977011 -20.497742
v 9.144756 11.931179 -20.497742
v 10.679726 -0.977011 -27.626530
v 10.679726 11.931179 -27.626530
vn -0.9738 -0.0000 -0.2273
vn 0.2273 -0.0000 -0.9738
vn 0.9738 -0.0000 0.2273
vn -0.2273 -0.0000 0.9738
vn -0.0000 -1.0000 -0.0000
vn -0.0000 1.0000 -0.0000
vn -1.0000 -0.0000 -0.0000
vn -0.0000 -0.0000 -1.0000
vn 1.0000 -0.0000 -0.0000
vn -0.0000 -0.0000 1.0000
vn -0.9329 -0.0000 -0.3601
vn 0.3601 -0.0000 -0.9329
vn 0.9329 -0.0000 0.3601
vn -0.3601 -0.0000 0.9329
vn -0.9311 -0.0000 0.3648
vn -0.3648 -0.0000 -0.9311
vn 0.9311 -0.0000 -0.3648
vn 0.3648 -0.0000 0.9311
vn -0.9216 -0.0000 0.3883
vn -0.3883 -0.0000 -0.9216
vn 0.9216 -0.0000 -0.3883
vn 0.3883 -0.0000 0.9216
vn -0.9055 -0.0000 0.4244
vn -0.4244 -0.0000 -0.9055
vn 0.9055 -0.0000 -0.4244
vn 0.4244 -0.0000 0.9055
vn -0.9776 -0.0000 -0.2105
vn 0.2105 -0.0000 -0.9776
vn 0.9776 -0.0000 0.2105
vn -0.2105 -0.0000 0.9776
vt 0.905033 0.223556
vt 0.905033 0.171242
vt 0.934587 0.171242
vt 0.934587 0.223556
vt 0.905033 0.275871
vt 0.905033 0.223556
vt 0.934587 0.223556
vt 0.934587 0.275871
vt 0.905033 0.328185
vt 0.934587 0.328185
vt 0.905033 0.380500
vt 0.934587 0.380500
vt 0.616318 0.925788
vt 0.586764 0.925788
vt 0.586764 0.896235
vt 0.616318 0.896235
vt 0.645871 0.925788
vt 0.645871 0.896235
vt 0.460699 0.885637
vt 0.460699 0.814145
vt 0.490253 0.814145
vt 0.490253 0.885637
vt 0.875479 0.740177
vt 0.875479 0.668684
vt 0.905033 0.668684
vt 0.905033 0.740177
vt 0.875479 0.811669
vt 0.905033 0.811669
vt 0.875479 0.883161
vt 0.905033 0.883161
vt 0.783087 0.917141
vt 0.753533 0.917141
vt 0.753533 0.887587
vt 0.783087 0.887587
vt 0.812641 0.917141
vt 0.812641 0.887587
vt 0.753533 0.887587
vt 0.753533 0.834038
vt 0.783087 0.834038
vt 0.783087 0.887587
vt 0.812641 0.834038
vt 0.812641 0.887587
vt 0.819293 0.912474
vt 0.819293 0.858925
vt 0.848846 0.858925
vt 0.848846 0.912474
vt 0.902112 0.642708
vt 0.902112 0.589160
vt 0.931666 0.589160
vt 0.931666 0.642708
vt 0.372038 0.921278
vt 0.342484 0.921278
vt 0.342484 0.891724
vt 0.372038 0.891724
vt 0.401592 0.921278
vt 0.401592 0.891724
vt 0.490253 0.931867
vt 0.490253 0.882791
vt 0.519807 0.882791
vt 0.519807 0.931867
vt 0.875479 0.932237
vt 0.905033 0.932237
vt 0.905033 0.586519
vt 0.905033 0.537443
vt 0.934587 0.537443
vt 0.934587 0.586519
vt 0.460699 0.934713
vt 0.490253 0.934713
vt 0.431145 0.921278
vt 0.431145 0.891724
vt 0.460699 0.921278
vt 0.460699 0.891724
vt 0.342484 0.814145
vt 0.372038 0.814145
vt 0.401592 0.814145
vt 0.431145 0.814145
vt 0.460699 0.814145
vt 0.557210 0.925788
vt 0.527656 0.925788
vt 0.527656 0.896235
vt 0.557210 0.896235
vt 0.875479 0.275721
vt 0.875479 0.171242
vt 0.905033 0.275721
vt 0.875479 0.380201
vt 0.905033 0.380201
vt 0.875479 0.484680
vt 0.875479 0.380201
vt 0.905033 0.380201
vt 0.905033 0.484680
vt 0.875479 0.589160
vt 0.875479 0.484680
vt 0.905033 0.484680
vt 0.905033 0.589160
vt 0.675425 0.925788
vt 0.675425 0.896235
vt 0.704979 0.925788
vt 0.704979 0.896235
vt 0.905033 0.432814
vt 0.934587 0.432814
vt 0.905033 0.485129
vt 0.905033 0.432814
vt 0.934587 0.432814
vt 0.934587 0.485129
vt 0.905033 0.537443
vt 0.934587 0.537443
vt 0.905033 0.720999
vt 0.934587 0.668684
vt 0.934587 0.720999
vt 0.734533 0.925788
vt 0.734533 0.896235
vt 0.848846 0.942027
vt 0.819293 0.942027
vt 0.819293 0.912474
vt 0.848846 0.912474
vt 0.905033 0.773313
vt 0.934587 0.773313
vt 0.905033 0.825628
vt 0.934587 0.825628
vt 0.905033 0.877942
vt 0.905033 0.825628
vt 0.934587 0.825628
vt 0.934587 0.877942
vt 0.905033 0.930257
vt 0.934587 0.930257
vt 0.942093 0.029554
vt 0.912540 0.029554
vt 0.912540 0.000000
vt 0.942093 0.000000
vt 0.942093 0.059108
vt 0.912540 0.059108
s 0
f 1/1/1 2/2/1 4/3/1 3/4/1
f 3/5/2 4/6/2 8/7/2 7/8/2
f 7/9/3 8/5/3 6/8/3 5/10/3
f 5/11/4 6/9/4 2/10/4 1/12/4
f 3/13/5 7/14/5 5/15/5 1/16/5
f 8/17/6 4/13/6 2/16/6 6/18/6
f 9/19/7 10/20/7 12/21/7 11/22/7
f 11/23/8 12/24/8 16/25/8 15/26/8
f 15/27/9 16/23/9 14/26/9 13/28/9
f 13/29/10 14/27/10 10/28/10 9/30/10
f 11/31/5 15/32/5 13/33/5 9/34/5
f 16/35/6 12/31/6 10/34/6 14/36/6
f 17/37/7 18/38/7 20/39/7 19/40/7
f 19/40/8 20/39/8 24/41/8 23/42/8
f 23/43/9 24/44/9 22/45/9 21/46/9
f 21/47/10 22/48/10 18/49/10 17/50/10
f 19/51/5 23/52/5 21/53/5 17/54/5
f 24/55/6 20/51/6 18/54/6 22/56/6
f 25/57/11 26/58/11 28/59/11 27/60/11
f 27/61/12 28/29/12 32/30/12 31/62/12
f 31/63/13 32/64/13 30/65/13 29/66/13
f 29/67/14 30/19/14 26/22/14 25/68/14
f 27/69/5 31/55/5 29/56/5 25/70/5
f 32/71/6 28/69/6 26/70/6 30/72/6
f 33/53/15 34/73/15 36/74/15 35/54/15
f 35/54/16 36/74/16 40/75/16 39/56/16
f 39/56/17 40/75/17 38/76/17 37/70/17
f 37/70/18 38/76/18 34/77/18 33/72/18
f 35/78/5 39/79/5 37/80/5 33/81/5
f 40/14/6 36/78/6 34/81/6 38/15/6
f 41/82/19 42/83/19 44/2/19 43/84/19
f 43/85/20 44/82/20 48/84/20 47/86/20
f 47/87/21 48/88/21 46/89/21 45/90/21
f 45/91/22 46/92/22 42/93/22 41/94/22
f 43/95/5 47/17/5 45/18/5 41/96/5
f 48/97/6 44/95/6 42/96/6 46/98/6
f 49/99/23 50/11/23 52/12/23 51/100/23
f 51/101/24 52/102/24 56/103/24 55/104/24
f 55/105/25 56/101/25 54/104/25 53/106/25
f 53/107/26 54/25/26 50/108/26 49/109/26
f 51/110/5 55/97/5 53/98/5 49/111/5
f 56/112/6 52/113/6 50/114/6 54/115/6
f 57/116/27 58/107/27 60/109/27 59/117/27
f 59/118/28 60/116/28 64/117/28 63/119/28
f 63/120/29 64/121/29 62/122/29 61/123/29
f 61/124/30 62/120/30 58/123/30 57/125/30
f 59/126/5 63/127/5 61/128/5 57/129/5
f 64/130/6 60/131/6 58/127/6 62/126/6
