# Blender 4.0.2
# www.blender.org
mtllib floor.mtl
o Floor
v 40.000000 0.250000 -30.000000
v 40.000000 -0.250000 -30.000000
v 40.000000 0.250000 30.000000
v 40.000000 -0.250000 30.000000
v -40.000000 0.250000 -30.000000
v -40.000000 -0.250000 -30.000000
v -40.000000 0.250000 30.000000
v -40.000000 -0.250000 30.000000
vn -0.0000 1.0000 -0.0000
vn -0.0000 -0.0000 1.0000
vn -1.0000 -0.0000 -0.0000
vn -0.0000 -1.0000 -0.0000
vn 1.0000 -0.0000 -0.0000
vn -0.0000 -0.0000 -1.0000
vt 0.796403 0.431235
vt 0.766849 0.431235
vt 0.766849 0.401681
vt 0.796403 0.401681
vt 0.831883 0.431235
vt 0.825957 0.431235
vt 0.825957 0.401681
vt 0.831883 0.401681
vt 0.509495 0.843698
vt 0.503569 0.843698
vt 0.503569 0.814145
vt 0.509495 0.814145
vt 0.825957 0.431235
vt 0.818567 0.863592
vt 0.812640 0.863592
vt 0.812640 0.834038
vt 0.818567 0.834038
vt 0.509495 0.873252
vt 0.503569 0.873252
s 0
usemtl Material
f 1/1/1 5/2/1 7/3/1 3/4/1
f 4/5/2 3/6/2 7/7/2 8/8/2
f 8/9/3 7/10/3 5/11/3 6/12/3
f 6/13/4 2/1/4 4/4/4 8/7/4
f 2/14/5 1/15/5 3/16/5 4/17/5
f 6/18/6 5/19/6 1/10/6 2/9/6
