# Blender 4.0.2
# www.blender.org
mtllib road.mtl
o Road
v -40.703480 0.668855 2.323920
v -25.443260 0.668855 2.323920
v -40.703480 0.668855 -2.323920
v -25.443260 0.668855 -2.323920
v -23.167805 0.668855 4.540859
v -18.519966 0.668855 4.540859
v -23.167805 0.668855 16.829266
v -18.519966 0.668855 16.829266
v -13.562834 0.668855 23.879063
v -13.562834 0.668855 19.188141
v -18.519966 0.668855 23.879063
v -22.041689 0.668855 23.273634
v -23.155388 0.668855 20.508190
v -23.223892 0.668855 2.523484
v -23.156385 0.668855 2.312383
v -23.392342 0.668855 2.376214
v -22.421291 0.668855 -2.169055
v -19.899132 0.668855 -1.003151
v -18.689323 0.668855 1.503637
v -3.525273 0.668855 17.143276
v -8.173111 0.668855 17.143276
v -3.525273 0.668855 -10.039770
v -8.173110 0.668855 -10.039770
v -0.120727 0.668855 -13.163607
v -0.120726 0.668855 -17.811445
v 17.911709 0.668855 -13.163607
v 17.911709 0.668855 -17.811445
v 20.577360 0.668855 -10.039770
v 25.225197 0.668855 -10.039770
v 20.577360 0.668855 16.195513
v 25.225199 0.668855 16.195513
v -7.954162 0.668855 -13.660112
v -6.546391 0.668855 -16.439384
v -3.689242 0.668855 -17.657354
v -2.789073 0.668855 -13.097517
v -3.376164 0.668855 -13.040546
v -3.436317 0.668855 -12.568565
v 20.187092 0.668855 -13.079006
v 20.513308 0.668855 -13.070093
v 20.527626 0.668855 -12.553890
v 25.100826 0.668855 -13.383492
v 23.993387 0.668855 -16.150906
v 21.350983 0.668855 -17.578762
v -3.525273 0.668855 20.076780
v -4.809334 0.668855 22.556723
v -8.220119 0.668855 23.879063
v -18.519966 0.668855 18.172237
v -19.497023 0.668855 19.466381
v -19.183262 0.668855 19.957619
v -18.519966 0.668855 20.204044
v -17.504063 0.668855 19.188141
v -18.806141 0.668855 18.972084
v -18.577005 0.668855 19.283842
v -19.000412 0.668855 19.495010
v -18.714241 0.668855 19.711067
v -18.222414 0.668855 19.485693
v -18.222414 0.668855 18.890589
v -9.236023 0.668855 19.188141
v -8.196772 0.668855 18.172506
v -8.153584 0.668855 19.270628
v -8.510832 0.668855 18.890671
v -40.703480 -0.232308 2.323920
v -25.443260 -0.232308 2.323920
v -40.703480 -0.232308 -2.323920
v -25.443260 -0.232308 -2.323920
v -23.167805 -0.232308 4.540859
v -18.519966 -0.232308 4.540859
v -23.167805 -0.232308 16.829266
v -18.519966 -0.232308 16.829266
v -13.562834 -0.232308 23.879063
v -13.562834 -0.232308 19.188141
v -18.519966 -0.232308 23.879063
v -22.041689 -0.232308 23.273634
v -23.155388 -0.232308 20.508190
v -23.223892 -0.232308 2.523484
v -23.156385 -0.232308 2.312383
v -23.392342 -0.232308 2.376214
v -22.421291 -0.232308 -2.169055
v -19.899132 -0.232308 -1.003151
v -18.689323 -0.232308 1.503637
v -3.525273 -0.232308 17.143276
v -8.173111 -0.232308 17.143276
v -3.525273 -0.232308 -10.039770
v -8.173110 -0.232308 -10.039770
v -0.120727 -0.232308 -13.163607
v -0.120726 -0.232308 -17.811445
v 17.911709 -0.232308 -13.163607
v 17.911709 -0.232308 -17.811445
v 20.577360 -0.232308 -10.039770
v 25.225197 -0.232308 -10.039770
v 20.577360 -0.232308 16.195513
v 25.225199 -0.232308 16.195513
v -7.954162 -0.232308 -13.660112
v -6.546391 -0.232308 -16.439384
v -3.689242 -0.232308 -17.657354
v -2.789073 -0.232308 -13.097517
v -3.376164 -0.232308 -13.040546
v -3.436317 -0.232308 -12.568565
v 20.187092 -0.232308 -13.079006
v 20.513308 -0.232308 -13.070093
v 20.527626 -0.232308 -12.553890
v 25.100826 -0.232308 -13.383492
v 23.993387 -0.232308 -16.150906
v 21.350983 -0.232308 -17.578762
v -3.525273 -0.232308 20.076780
v -4.809334 -0.232308 22.556723
v -8.220119 -0.232308 23.879063
v -18.519966 -0.232308 18.172237
v -19.497023 -0.232308 19.466381
v -19.183262 -0.232308 19.957619
v -18.519966 -0.232308 20.204044
v -17.504063 -0.232308 19.188141
v -18.806141 -0.232308 18.972084
v -18.577005 -0.232308 19.283842
v -19.000412 -0.232308 19.495010
v -18.714241 -0.232308 19.711067
v -18.222414 -0.232308 19.485693
v -18.222414 -0.232308 18.890589
v -9.236023 -0.232308 19.188141
v -8.196772 -0.232308 18.172506
v -8.153584 -0.232308 19.270628
v -8.510832 -0.232308 18.890671
vn -0.0000 1.0000 -0.0000
vn -0.0000 -1.0000 -0.0000
vn -0.8921 -0.0000 -0.4519
vn -0.0255 -0.0000 0.9997
vn -0.3921 -0.0000 -0.9199
vn 0.9984 -0.0000 -0.0557
vn 0.0248 -0.0000 0.9997
vn -0.9996 -0.0000 0.0278
vn 0.0966 -0.0000 0.9953
vn -0.9525 -0.0000 -0.3046
vn 0.9920 -0.0000 0.1264
vn 0.2611 -0.0000 0.9653
vn 0.0512 -0.0000 -0.9987
vn 0.4196 -0.0000 -0.9077
vn 0.9006 -0.0000 -0.4346
vn 0.0675 -0.0000 -0.9977
vn -0.9998 -0.0000 0.0198
vn -0.0372 -0.0000 0.9993
vn -0.0273 -0.0000 0.9996
vn 0.3827 -0.0000 -0.9239
vn -0.9996 -0.0000 0.0277
vn -0.3795 -0.0000 -0.9252
vn 0.9993 -0.0000 -0.0372
vn 1.0000 -0.0000 -0.0000
vn -1.0000 -0.0000 -0.0000
vn 0.9284 -0.0000 -0.3715
vn -0.0000 -0.0000 1.0000
vn 0.4754 -0.0000 -0.8798
vn -0.0000 -0.0000 -1.0000
vn -0.9162 -0.0000 -0.4007
vn 0.8880 -0.0000 0.4598
vn 0.3615 -0.0000 0.9324
vn -1.0000 -0.0000 0.0034
vn -0.9997 -0.0000 -0.0230
vn 0.9994 -0.0000 0.0352
vn 0.9239 -0.0000 -0.3827
vn -0.0431 -0.0000 -0.9991
vn -0.1694 -0.0000 0.9855
vn -0.9982 -0.0000 -0.0604
vn -0.9276 -0.0000 0.3736
vt 0.261178 0.577298
vt 0.093760 0.426233
vt 0.047750 0.477224
vt 0.215168 0.628289
vt 0.039751 0.333376
vt 0.090742 0.379386
vt 0.212388 0.244571
vt 0.161397 0.198561
vt 0.263828 0.162722
vt 0.199642 0.170806
vt 0.193057 0.174071
vt 0.198222 0.179301
vt 0.248671 0.204087
vt 0.118186 0.019257
vt 0.071836 0.069157
vt 0.082895 0.080777
vt 0.130364 0.123610
vt 0.176801 0.072146
vt 0.231185 0.121218
vt 0.194805 0.161536
vt 0.192056 0.168868
vt 0.173603 0.162625
vt 0.184429 0.166472
vt 0.011543 0.368373
vt 0.071387 0.402074
vt -0.000000 0.407851
vt 0.068556 0.403721
vt 0.016129 0.445610
vt 0.071777 0.405357
vt 0.822214 0.432357
vt 0.822213 0.834038
vt 0.753533 0.834038
vt 0.753533 0.432357
vt 0.640220 0.630019
vt 0.571603 0.627057
vt 0.560108 0.893272
vt 0.628725 0.896235
vt 0.565303 0.389961
vt 0.550893 0.002553
vt 0.619527 -0.000000
vt 0.633936 0.387408
vt 0.640220 0.577239
vt 0.572329 0.587621
vt 0.624061 0.534282
vt 0.571862 0.578918
vt 0.583927 0.511727
vt 0.564932 0.577729
vt 0.530619 0.506187
vt 0.527656 0.574803
vt 0.633936 0.436852
vt 0.565950 0.427113
vt 0.619103 0.478326
vt 0.566022 0.434744
vt 0.580868 0.500862
vt 0.561210 0.435055
vt 0.530209 0.506187
vt 0.527656 0.437554
vt 0.029040 0.014496
vt 0.067677 -0.000000
vt 0.174692 0.183827
vt 0.185749 0.177885
vt 0.186321 0.172196
vt 0.178538 0.173000
vt 0.000000 0.046679
vt 0.050991 0.092689
vt 0.061439 0.081632
vt 0.071994 0.076862
vt 0.266478 0.577298
vt 0.312488 0.628289
vt 0.479907 0.477224
vt 0.433896 0.426233
vt 0.487905 0.333376
vt 0.366259 0.198561
vt 0.315268 0.244571
vt 0.436914 0.379386
vt 0.263828 0.162722
vt 0.278986 0.204087
vt 0.329434 0.179301
vt 0.334599 0.174071
vt 0.328014 0.170806
vt 0.409470 0.019257
vt 0.350856 0.072146
vt 0.397292 0.123610
vt 0.444761 0.080777
vt 0.455820 0.069157
vt 0.296471 0.121218
vt 0.335600 0.168868
vt 0.332851 0.161536
vt 0.343227 0.166472
vt 0.354053 0.162625
vt 0.456269 0.402074
vt 0.516114 0.368373
vt 0.459100 0.403721
vt 0.527656 0.407851
vt 0.455879 0.405357
vt 0.511527 0.445610
vt 0.766849 0.000000
vt 0.835530 0.000000
vt 0.835530 0.401681
vt 0.766849 0.401681
vt 0.640220 0.630019
vt 0.651716 0.896235
vt 0.720332 0.893272
vt 0.708837 0.627057
vt 0.702569 0.389961
vt 0.633936 0.387408
vt 0.648346 -0.000000
vt 0.716979 0.002553
vt 0.708111 0.587621
vt 0.708578 0.578918
vt 0.656380 0.534282
vt 0.715508 0.577729
vt 0.696513 0.511727
vt 0.752784 0.574803
vt 0.749821 0.506187
vt 0.701923 0.427113
vt 0.701851 0.434744
vt 0.648770 0.478326
vt 0.706663 0.435055
vt 0.687005 0.500862
vt 0.740216 0.437554
vt 0.737664 0.506187
vt 0.498617 0.014496
vt 0.459980 -0.000000
vt 0.352965 0.183827
vt 0.349118 0.173000
vt 0.341335 0.172196
vt 0.341907 0.177885
vt 0.527656 0.046679
vt 0.466217 0.081632
vt 0.476665 0.092689
vt 0.455662 0.076862
vt 0.835530 0.858925
vt 0.848846 0.858925
vt 0.848846 0.817224
vt 0.835530 0.817224
vt 0.862163 0.633767
vt 0.875479 0.633767
vt 0.875479 0.603525
vt 0.862163 0.603525
vt 0.835530 0.444971
vt 0.848846 0.444971
vt 0.848846 0.401681
vt 0.835530 0.401681
vt 0.862163 0.387911
vt 0.875479 0.387911
vt 0.875479 0.342983
vt 0.862163 0.342983
vt 0.848846 0.305637
vt 0.862163 0.305637
vt 0.862163 0.266202
vt 0.848846 0.266202
vt 0.848846 0.620265
vt 0.862163 0.620265
vt 0.862163 0.590495
vt 0.848846 0.590495
vt 0.848846 0.314341
vt 0.862163 0.314341
vt 0.848846 0.623414
vt 0.862163 0.623414
vt 0.862163 0.865996
vt 0.875479 0.865996
vt 0.875479 0.859045
vt 0.862163 0.859045
vt 0.875479 0.600000
vt 0.862163 0.600000
vt 0.862163 0.269447
vt 0.875479 0.269447
vt 0.875479 0.225031
vt 0.862163 0.225031
vt 0.862163 0.305530
vt 0.875479 0.305530
vt 0.875479 0.305530
vt 0.862163 0.305530
vt 0.513726 0.860193
vt 0.513726 0.809573
vt 0.527043 0.809573
vt 0.527043 0.860193
vt 0.753533 0.044789
vt 0.753533 0.007631
vt 0.766849 0.007631
vt 0.766849 0.044789
vt 0.862163 0.883076
vt 0.862163 0.916549
vt 0.848846 0.916549
vt 0.848846 0.883076
vt 0.862163 0.878274
vt 0.848846 0.878274
vt 0.513726 0.638599
vt 0.527043 0.638599
vt 0.527043 0.628289
vt 0.513726 0.628289
vt 0.753533 -0.000000
vt 0.766849 -0.000000
vt 0.513726 0.771498
vt 0.527043 0.771498
vt 0.527043 0.760522
vt 0.513726 0.760522
vt 0.740217 0.436813
vt 0.740217 0.387485
vt 0.753533 0.387485
vt 0.753533 0.436813
vt 0.835530 0.401483
vt 0.835530 -0.000000
vt 0.848846 -0.000000
vt 0.848846 0.401483
vt 0.490253 0.882791
vt 0.503569 0.882791
vt 0.503569 0.814144
vt 0.490253 0.814144
vt 0.740217 0.477174
vt 0.753533 0.477174
vt 0.822214 0.833927
vt 0.822214 0.432357
vt 0.835530 0.432357
vt 0.835530 0.833927
vt 0.862163 0.859045
vt 0.875479 0.859045
vt 0.875479 0.000000
vt 0.862163 0.000000
vt 0.740216 0.487926
vt 0.753533 0.487926
vt 0.753533 0.477174
vt 0.740216 0.477174
vt 0.835530 0.763651
vt 0.848846 0.763651
vt 0.848846 0.497740
vt 0.835530 0.497740
vt 0.862163 -0.000000
vt 0.848846 -0.000000
vt 0.862163 0.589284
vt 0.875479 0.589284
vt 0.875479 0.569445
vt 0.862163 0.569445
vt 0.848846 0.753502
vt 0.862163 0.753502
vt 0.862163 0.674630
vt 0.848846 0.674630
vt 0.862163 0.409000
vt 0.848846 0.409000
vt 0.513726 0.696717
vt 0.527043 0.696717
vt 0.875479 0.632496
vt 0.888796 0.632496
vt 0.888796 0.589160
vt 0.875479 0.589160
vt 0.888796 0.657698
vt 0.902112 0.589160
vt 0.902112 0.657698
vt 0.875479 0.668685
vt 0.888796 0.668685
vt 0.753533 0.432357
vt 0.766849 0.432357
vt 0.862163 0.623414
vt 0.848846 0.623414
vt 0.740217 -0.000000
vt 0.753533 -0.000000
vt 0.862163 0.354670
vt 0.848846 0.354670
vt 0.740216 0.503139
vt 0.753533 0.503139
vt 0.862163 0.903323
vt 0.875479 0.903323
vt 0.848846 0.826681
vt 0.862163 0.826681
vt 0.848846 0.878274
vt 0.862163 0.878274
vt 0.862163 0.314341
vt 0.848846 0.314341
s 0
f 1/1/1 2/2/1 4/3/1 3/4/1
f 6/5/1 5/6/1 7/7/1 8/8/1
f 12/9/1 49/10/1 54/11/1 48/12/1 13/13/1
f 46/14/1 60/15/1 58/16/1 10/17/1 9/18/1
f 11/19/1 50/20/1 55/21/1 49/10/1 12/9/1
f 9/18/1 10/17/1 51/22/1 56/23/1 50/20/1 11/19/1
f 5/6/1 6/5/1 19/24/1 14/25/1
f 14/25/1 19/24/1 18/26/1 15/27/1
f 15/27/1 18/26/1 17/28/1 16/29/1
f 16/29/1 17/28/1 4/3/1 2/2/1
f 20/30/1 22/31/1 23/32/1 21/33/1
f 25/34/1 24/35/1 26/36/1 27/37/1
f 28/38/1 30/39/1 31/40/1 29/41/1
f 24/35/1 25/34/1 34/42/1 35/43/1
f 35/43/1 34/42/1 33/44/1 36/45/1
f 36/45/1 33/44/1 32/46/1 37/47/1
f 37/47/1 32/46/1 23/48/1 22/49/1
f 29/41/1 41/50/1 40/51/1 28/38/1
f 41/50/1 42/52/1 39/53/1 40/51/1
f 42/52/1 43/54/1 38/55/1 39/53/1
f 43/54/1 27/56/1 26/57/1 38/55/1
f 44/58/1 60/15/1 45/59/1
f 47/60/1 52/61/1 53/62/1 57/63/1
f 48/12/1 54/11/1 53/62/1 52/61/1
f 49/10/1 55/21/1 53/62/1 54/11/1
f 50/20/1 56/23/1 53/62/1 55/21/1
f 51/22/1 57/63/1 53/62/1 56/23/1
f 20/64/1 21/65/1 59/66/1 60/15/1 44/58/1
f 59/66/1 61/67/1 60/15/1
f 13/13/1 48/12/1 52/61/1 47/60/1 8/8/1 7/7/1
f 61/67/1 58/16/1 60/15/1
f 60/15/1 46/14/1 45/59/1
f 62/68/2 64/69/2 65/70/2 63/71/2
f 67/72/2 69/73/2 68/74/2 66/75/2
f 73/76/2 74/77/2 109/78/2 115/79/2 110/80/2
f 107/81/2 70/82/2 71/83/2 119/84/2 121/85/2
f 72/86/2 73/76/2 110/80/2 116/87/2 111/88/2
f 70/82/2 72/86/2 111/88/2 117/89/2 112/90/2 71/83/2
f 66/75/2 75/91/2 80/92/2 67/72/2
f 75/91/2 76/93/2 79/94/2 80/92/2
f 76/93/2 77/95/2 78/96/2 79/94/2
f 77/95/2 63/71/2 65/70/2 78/96/2
f 81/97/2 82/98/2 84/99/2 83/100/2
f 86/101/2 88/102/2 87/103/2 85/104/2
f 89/105/2 90/106/2 92/107/2 91/108/2
f 85/104/2 96/109/2 95/42/2 86/101/2
f 96/109/2 97/110/2 94/111/2 95/42/2
f 97/110/2 98/112/2 93/113/2 94/111/2
f 98/112/2 83/114/2 84/115/2 93/113/2
f 90/106/2 89/105/2 101/116/2 102/50/2
f 102/50/2 101/116/2 100/117/2 103/118/2
f 103/118/2 100/117/2 99/119/2 104/120/2
f 104/120/2 99/119/2 87/121/2 88/122/2
f 105/123/2 106/124/2 121/85/2
f 108/125/2 118/126/2 114/127/2 113/128/2
f 109/78/2 113/128/2 114/127/2 115/79/2
f 110/80/2 115/79/2 114/127/2 116/87/2
f 111/88/2 116/87/2 114/127/2 117/89/2
f 112/90/2 117/89/2 114/127/2 118/126/2
f 81/129/2 105/123/2 121/85/2 120/130/2 82/131/2
f 120/130/2 121/85/2 122/132/2
f 74/77/2 68/74/2 69/73/2 108/125/2 113/128/2 109/78/2
f 122/132/2 121/85/2 119/84/2
f 121/85/2 106/124/2 107/81/2
f 33/133/3 94/134/3 93/135/3 32/136/3
f 2/137/4 63/138/4 77/139/4 16/140/4
f 34/141/5 95/142/5 94/143/5 33/144/5
f 6/145/6 67/146/6 80/147/6 19/148/6
f 35/149/7 96/150/7 85/151/7 24/152/7
f 14/153/8 75/154/8 66/155/8 5/156/8
f 36/157/9 97/158/9 96/150/9 35/149/9
f 15/159/10 76/160/10 75/154/10 14/153/10
f 37/161/11 98/162/11 97/163/11 36/164/11
f 16/140/12 77/139/12 76/165/12 15/166/12
f 17/167/13 78/168/13 65/169/13 4/170/13
f 18/171/14 79/172/14 78/168/14 17/167/14
f 19/148/15 80/147/15 79/173/15 18/174/15
f 27/175/16 43/176/16 104/177/16 88/178/16
f 28/179/17 40/180/17 101/181/17 89/182/17
f 38/183/18 26/184/18 87/185/18 99/186/18
f 39/187/19 38/183/19 99/186/19 100/188/19
f 51/189/20 112/190/20 118/191/20 57/192/20
f 40/180/21 39/193/21 100/194/21 101/181/21
f 61/195/22 122/196/22 119/197/22 58/198/22
f 41/199/23 29/200/23 90/201/23 102/202/23
f 22/203/24 20/204/24 81/205/24 83/206/24
f 3/207/25 64/208/25 62/209/25 1/210/25
f 42/211/26 41/199/26 102/202/26 103/212/26
f 21/213/25 23/214/25 84/215/25 82/216/25
f 1/217/27 62/218/27 63/138/27 2/137/27
f 43/176/28 42/195/28 103/196/28 104/177/28
f 4/170/29 65/169/29 64/219/29 3/220/29
f 59/221/30 120/222/30 122/223/30 61/224/30
f 27/225/29 88/226/29 86/227/29 25/228/29
f 24/152/27 85/151/27 87/229/27 26/230/27
f 47/231/24 108/232/24 69/233/24 8/234/24
f 9/235/27 70/236/27 107/237/27 46/238/27
f 5/156/25 66/155/25 68/239/25 7/240/25
f 10/241/29 71/242/29 112/190/29 51/189/29
f 44/243/24 105/244/24 81/245/24 20/246/24
f 31/247/27 30/245/27 91/248/27 92/249/27
f 8/234/24 69/233/24 67/146/24 6/145/24
f 45/250/31 106/251/31 105/244/31 44/243/31
f 30/252/25 28/179/25 89/182/25 91/253/25
f 46/238/32 107/237/32 106/254/32 45/255/32
f 29/200/24 31/256/24 92/257/24 90/201/24
f 7/240/33 68/239/33 74/258/33 13/259/33
f 21/260/34 82/261/34 120/222/34 59/221/34
f 22/262/35 83/263/35 98/162/35 37/161/35
f 11/264/27 72/265/27 70/236/27 9/235/27
f 58/198/29 119/197/29 71/242/29 10/241/29
f 57/166/36 118/165/36 108/232/36 47/231/36
f 25/228/37 86/227/37 95/142/37 34/141/37
f 12/266/38 73/267/38 72/265/38 11/264/38
f 32/136/39 93/135/39 84/226/39 23/225/39
f 13/259/40 74/258/40 73/268/40 12/269/40
