# Blender 4.0.2
# www.blender.org
mtllib tower_base.mtl
o Tower_base
v -0.000000 0.252312 -1.198834
v -0.000000 0.554894 -0.556908
v 0.458774 0.252312 -1.107578
v 0.213119 0.554894 -0.514516
v 0.847703 0.252312 -0.847703
v 0.393793 0.554894 -0.393793
v 1.107578 0.252312 -0.458774
v 0.514516 0.554894 -0.213119
v 1.198834 0.252312 -0.000000
v 0.556908 0.554894 0.000000
v 1.107578 0.252312 0.458774
v 0.514516 0.554894 0.213119
v 0.847703 0.252312 0.847703
v 0.393793 0.554894 0.393793
v 0.458774 0.252312 1.107578
v 0.213119 0.554894 0.514516
v -0.000000 0.252312 1.198834
v -0.000000 0.554894 0.556908
v -0.458774 0.252312 1.107578
v -0.213119 0.554894 0.514516
v -0.847703 0.252312 0.847703
v -0.393793 0.554894 0.393793
v -1.107578 0.252312 0.458774
v -0.514516 0.554894 0.213119
v -1.198834 0.252312 -0.000000
v -0.556908 0.554894 0.000000
v -1.107578 0.252312 -0.458774
v -0.514516 0.554894 -0.213119
v -0.847703 0.252312 -0.847703
v -0.393793 0.554894 -0.393793
v -0.458774 0.252312 -1.107578
v -0.213119 0.554894 -0.514516
v 0.410250 0.554894 -0.990431
v -0.000000 0.554894 -1.072035
v 0.758043 0.554894 -0.758043
v 0.990431 0.554894 -0.410250
v 1.072035 0.554894 -0.000000
v 0.990431 0.554894 0.410250
v 0.758043 0.554894 0.758043
v 0.410250 0.554894 0.990431
v -0.000000 0.554894 1.072035
v -0.410250 0.554894 0.990431
v -0.758043 0.554894 0.758043
v -0.990431 0.554894 0.410250
v -1.072035 0.554894 -0.000000
v -0.990431 0.554894 -0.410250
v -0.758043 0.554894 -0.758043
v -0.410250 0.554894 -0.990431
v -0.000000 -0.019163 -1.198834
v 0.458774 -0.019163 -1.107578
v 0.847703 -0.019163 -0.847703
v 1.107578 -0.019163 -0.458774
v 1.198834 -0.019163 -0.000000
v 1.107578 -0.019163 0.458774
v 0.847703 -0.019163 0.847703
v 0.458774 -0.019163 1.107578
v -0.000000 -0.019163 1.198834
v -0.458774 -0.019163 1.107578
v -0.847703 -0.019163 0.847703
v -1.107578 -0.019163 0.458774
v -1.198834 -0.019163 -0.000000
v -1.107578 -0.019163 -0.458774
v -0.847703 -0.019163 -0.847703
v -0.458774 -0.019163 -1.107578
v 0.199941 0.488622 -0.482699
v -0.000000 0.488622 -0.522470
v 0.369442 0.488622 -0.369442
v 0.482699 0.488622 -0.199941
v 0.522470 0.488622 0.000000
v 0.482699 0.488622 0.199941
v 0.369442 0.488622 0.369442
v 0.199941 0.488622 0.482699
v -0.000000 0.488622 0.522470
v -0.199941 0.488622 0.482699
v -0.369442 0.488622 0.369442
v -0.482699 0.488622 0.199941
v -0.522470 0.488622 0.000000
v -0.482699 0.488622 -0.199941
v -0.369442 0.488622 -0.369442
v -0.199941 0.488622 -0.482699
vn 0.1804 0.3801 -0.9072
vn 0.5139 0.3801 -0.7690
vn 0.7690 0.3801 -0.5139
vn 0.9072 0.3801 -0.1804
vn 0.9072 0.3801 0.1804
vn 0.7690 0.3801 0.5139
vn 0.5139 0.3801 0.7690
vn 0.1804 0.3801 0.9072
vn -0.1804 0.3801 0.9072
vn -0.5139 0.3801 0.7690
vn -0.7690 0.3801 0.5139
vn -0.9072 0.3801 0.1804
vn -0.9072 0.3801 -0.1804
vn -0.7690 0.3801 -0.5139
vn -0.5139 0.3801 -0.7690
vn -0.1804 0.3801 -0.9072
vn 0.8315 -0.0000 -0.5556
vn -0.0000 1.0000 -0.0000
vn -0.0000 -1.0000 -0.0000
vn 0.1951 -0.0000 0.9808
vn 0.1951 -0.0000 -0.9808
vn -0.9808 -0.0000 -0.1951
vn 0.8315 -0.0000 0.5556
vn -0.8315 -0.0000 0.5556
vn -0.1951 -0.0000 -0.9808
vn 0.9808 -0.0000 -0.1951
vn -0.1951 -0.0000 0.9808
vn -0.8315 -0.0000 -0.5556
vn 0.5556 -0.0000 -0.8315
vn 0.5556 -0.0000 0.8315
vn -0.9808 -0.0000 0.1951
vn 0.9808 -0.0000 0.1951
vn -0.5556 -0.0000 0.8315
vn -0.5556 -0.0000 -0.8315
vn 0.8738 0.4541 -0.1738
vn -0.8738 0.4541 -0.1738
vn 0.8738 0.4541 0.1738
vn -0.7408 0.4541 -0.4950
vn 0.7408 0.4541 0.4950
vn -0.4950 0.4541 -0.7408
vn 0.4950 0.4541 0.7408
vn -0.1738 0.4541 -0.8738
vn -0.1738 0.4541 0.8738
vn 0.1738 0.4541 0.8738
vn 0.1738 0.4541 -0.8738
vn -0.4950 0.4541 0.7408
vn 0.4950 0.4541 -0.7408
vn -0.7408 0.4541 0.4950
vn 0.7408 0.4541 -0.4950
vn -0.8738 0.4541 0.1738
vt 0.736836 0.275815
vt 0.734845 0.346854
vt 0.643391 0.351270
vt 0.634565 0.280753
vt 0.559308 0.363844
vt 0.540537 0.294815
vt 0.009189 0.610151
vt 0.024609 0.540297
vt 0.109200 0.548802
vt 0.103785 0.619662
vt 0.200761 0.548802
vt 0.206176 0.619662
vt 0.285352 0.540297
vt 0.300772 0.610151
vt 0.447808 0.794867
vt 0.428036 0.863896
vt 0.362611 0.851322
vt 0.374644 0.780805
vt 0.277708 0.846906
vt 0.279699 0.775867
vt 0.186253 0.851322
vt 0.177428 0.780805
vt 0.102171 0.863896
vt 0.083400 0.794867
vt 0.461097 0.075732
vt 0.484175 0.007737
vt 0.548918 0.023452
vt 0.533498 0.093306
vt 0.633509 0.031957
vt 0.628094 0.102817
vt 0.725070 0.031957
vt 0.730485 0.102817
vt 0.809661 0.023452
vt 0.825081 0.093306
vt 0.874404 0.007737
vt 0.897482 0.075732
vt 0.904945 0.294814
vt 0.885174 0.363844
vt 0.819748 0.351270
vt 0.831781 0.280753
vt 0.103785 0.677310
vt 0.009189 0.667799
vt 0.740243 0.644464
vt 0.740243 0.596899
vt 0.850835 0.574901
vt 0.850835 0.666462
vt 0.722041 0.552955
vt 0.815797 0.490310
vt 0.688408 0.519322
vt 0.751053 0.425567
vt 0.644464 0.501120
vt 0.666462 0.390528
vt 0.596899 0.501120
vt 0.574901 0.390528
vt 0.552955 0.519322
vt 0.490310 0.425567
vt 0.519322 0.552955
vt 0.425567 0.490310
vt 0.501120 0.596899
vt 0.390528 0.574901
vt 0.501120 0.644464
vt 0.390528 0.666462
vt 0.519322 0.688408
vt 0.425567 0.751053
vt 0.552955 0.722041
vt 0.490310 0.815796
vt 0.596899 0.740243
vt 0.574901 0.850835
vt 0.644464 0.740243
vt 0.666462 0.850835
vt 0.688408 0.722041
vt 0.751053 0.815796
vt 0.722041 0.688408
vt 0.815797 0.751053
vt 0.316262 0.007691
vt 0.410859 0.046874
vt 0.483260 0.119275
vt 0.522443 0.213872
vt 0.522443 0.316262
vt 0.483260 0.410859
vt 0.410859 0.483260
vt 0.316262 0.522443
vt 0.213872 0.522443
vt 0.119275 0.483260
vt 0.046874 0.410859
vt 0.007691 0.316262
vt 0.007691 0.213872
vt 0.046874 0.119275
vt 0.119275 0.046874
vt 0.213872 0.007691
vt 0.174647 0.723225
vt 0.276919 0.718287
vt 0.631785 0.223173
vt 0.734056 0.218235
vt 0.825081 0.150953
vt 0.730485 0.160464
vt 0.373173 0.592578
vt 0.373173 0.650225
vt 0.300772 0.667799
vt 0.628094 0.160464
vt 0.533498 0.150954
vt 0.829001 0.223172
vt 0.206176 0.677310
vt 0.080620 0.737287
vt 0.897482 0.133380
vt 0.537757 0.237234
vt 0.371864 0.723225
vt 0.011931 0.815912
vt 0.009150 0.758332
vt 0.902165 0.237234
vt 0.660517 0.599182
vt 0.658223 0.646691
vt 0.642445 0.644457
vt 0.644597 0.599885
vt 0.785381 0.816935
vt 0.816935 0.785381
vt 0.858161 0.768304
vt 0.902785 0.768304
vt 0.944011 0.785381
vt 0.975565 0.816935
vt 0.992641 0.858161
vt 0.992641 0.902784
vt 0.975565 0.944011
vt 0.944011 0.975565
vt 0.902785 0.992641
vt 0.858161 0.992641
vt 0.816935 0.975565
vt 0.785381 0.944011
vt 0.768305 0.902785
vt 0.768305 0.858161
vt 0.583588 0.570003
vt 0.585882 0.614109
vt 0.569962 0.614812
vt 0.567810 0.573434
vt 0.658223 0.555076
vt 0.642445 0.558507
vt 0.577056 0.536015
vt 0.561682 0.541548
vt 0.651691 0.521088
vt 0.636317 0.526621
vt 0.562539 0.197354
vt 0.528551 0.190822
vt 0.534084 0.175448
vt 0.565970 0.181576
vt 0.620906 0.642959
vt 0.614373 0.686639
vt 0.598999 0.681704
vt 0.605128 0.640725
vt 0.606645 0.199648
vt 0.607349 0.183728
vt 0.620906 0.551344
vt 0.623200 0.595450
vt 0.607280 0.596154
vt 0.605128 0.554775
vt 0.654154 0.197354
vt 0.651920 0.181576
vt 0.614373 0.517356
vt 0.598999 0.522889
vt 0.697834 0.190822
vt 0.692899 0.175448
vt 0.583588 0.661618
vt 0.577056 0.705298
vt 0.561682 0.700363
vt 0.567810 0.659384
vt 0.651691 0.690371
vt 0.636317 0.685436
s 0
usemtl Tower_Base
f 1/1/1 34/2/1 33/3/1 3/4/1
f 3/4/2 33/3/2 35/5/2 5/6/2
f 5/7/3 35/8/3 36/9/3 7/10/3
f 7/10/4 36/9/4 37/11/4 9/12/4
f 9/12/5 37/11/5 38/13/5 11/14/5
f 11/15/6 38/16/6 39/17/6 13/18/6
f 13/18/7 39/17/7 40/19/7 15/20/7
f 15/20/8 40/19/8 41/21/8 17/22/8
f 17/22/9 41/21/9 42/23/9 19/24/9
f 19/25/10 42/26/10 43/27/10 21/28/10
f 21/28/11 43/27/11 44/29/11 23/30/11
f 23/30/12 44/29/12 45/31/12 25/32/12
f 25/32/13 45/31/13 46/33/13 27/34/13
f 27/34/14 46/33/14 47/35/14 29/36/14
f 29/37/15 47/38/15 48/39/15 31/40/15
f 31/40/16 48/39/16 34/2/16 1/1/16
f 5/7/17 7/10/17 52/41/17 51/42/17
f 2/43/18 4/44/18 33/45/18 34/46/18
f 4/44/18 6/47/18 35/48/18 33/45/18
f 6/47/18 8/49/18 36/50/18 35/48/18
f 8/49/18 10/51/18 37/52/18 36/50/18
f 10/51/18 12/53/18 38/54/18 37/52/18
f 12/53/18 14/55/18 39/56/18 38/54/18
f 14/55/18 16/57/18 40/58/18 39/56/18
f 16/57/18 18/59/18 41/60/18 40/58/18
f 18/59/18 20/61/18 42/62/18 41/60/18
f 20/61/18 22/63/18 43/64/18 42/62/18
f 22/63/18 24/65/18 44/66/18 43/64/18
f 24/65/18 26/67/18 45/68/18 44/66/18
f 26/67/18 28/69/18 46/70/18 45/68/18
f 28/69/18 30/71/18 47/72/18 46/70/18
f 30/71/18 32/73/18 48/74/18 47/72/18
f 32/73/18 2/43/18 34/46/18 48/74/18
f 49/75/19 50/76/19 51/77/19 52/78/19 53/79/19 54/80/19 55/81/19 56/82/19 57/83/19 58/84/19 59/85/19 60/86/19 61/87/19 62/88/19 63/89/19 64/90/19
f 15/20/20 17/22/20 57/91/20 56/92/20
f 1/1/21 3/4/21 50/93/21 49/94/21
f 25/32/22 27/34/22 62/95/22 61/96/22
f 11/14/23 13/97/23 55/98/23 54/99/23
f 21/28/24 23/30/24 60/100/24 59/101/24
f 31/40/25 1/1/25 49/94/25 64/102/25
f 7/10/26 9/12/26 53/103/26 52/41/26
f 17/22/27 19/24/27 58/104/27 57/91/27
f 27/34/28 29/36/28 63/105/28 62/95/28
f 3/4/29 5/6/29 51/106/29 50/93/29
f 13/18/30 15/20/30 56/92/30 55/107/30
f 23/30/31 25/32/31 61/96/31 60/100/31
f 9/12/32 11/14/32 54/99/32 53/103/32
f 19/24/33 21/108/33 59/109/33 58/104/33
f 29/37/34 31/40/34 64/102/34 63/110/34
f 26/111/35 24/112/35 76/113/35 77/114/35
f 65/115/18 66/116/18 80/117/18 79/118/18 78/119/18 77/120/18 76/121/18 75/122/18 74/123/18 73/124/18 72/125/18 71/126/18 70/127/18 69/128/18 68/129/18 67/130/18
f 12/131/36 10/132/36 69/133/36 70/134/36
f 28/135/37 26/111/37 77/114/37 78/136/37
f 14/137/38 12/131/38 70/134/38 71/138/38
f 30/139/39 28/135/39 78/136/39 79/140/39
f 16/141/40 14/142/40 71/143/40 72/144/40
f 32/145/41 30/146/41 79/147/41 80/148/41
f 18/149/42 16/141/42 72/144/42 73/150/42
f 4/151/43 2/152/43 66/153/43 65/154/43
f 2/152/44 32/145/44 80/148/44 66/153/44
f 20/155/45 18/149/45 73/150/45 74/156/45
f 6/157/46 4/151/46 65/154/46 67/158/46
f 22/159/47 20/155/47 74/156/47 75/160/47
f 8/161/48 6/162/48 67/163/48 68/164/48
f 24/112/49 22/165/49 75/166/49 76/113/49
f 10/132/50 8/161/50 68/164/50 69/133/50
