# Blender 4.0.2
# www.blender.org
mtllib tower1.mtl
o Tower1
v -0.000000 0.405891 -0.518719
v 0.198505 0.405891 -0.479234
v 0.366790 0.405891 -0.366790
v 0.479234 0.405891 -0.198505
v 0.518719 0.405891 0.000000
v 0.479234 0.405891 0.198505
v 0.366790 0.405891 0.366790
v 0.198505 0.405891 0.479234
v -0.000000 0.405891 0.518719
v -0.198505 0.405891 0.479234
v -0.366790 0.405891 0.366790
v -0.479234 0.405891 0.198505
v -0.518719 0.405891 0.000000
v -0.479234 0.405891 -0.198505
v -0.366790 0.405891 -0.366790
v -0.198505 0.405891 -0.479234
v 0.198505 1.757205 -0.479234
v 0.000000 1.757205 -0.518719
v 0.366790 1.757205 -0.366790
v 0.479234 1.757205 -0.198505
v 0.518719 1.757205 0.000000
v 0.479234 1.757205 0.198505
v 0.366790 1.757205 0.366790
v 0.198505 1.757205 0.479234
v 0.000000 1.757205 0.518719
v -0.198505 1.757205 0.479234
v -0.366790 1.757205 0.366790
v -0.479234 1.757205 0.198505
v -0.518719 1.757205 0.000000
v -0.479234 1.757205 -0.198505
v -0.366790 1.757205 -0.366790
v -0.198505 1.757205 -0.479234
v -0.694614 2.922877 0.795190
v -0.694614 2.922877 -0.774376
v 0.694614 2.922877 0.795190
v 0.694614 2.922877 -0.774376
v -0.694614 1.712725 -0.774376
v -0.694614 1.712725 0.795190
v 0.694614 1.712725 -0.774376
v 0.694614 1.712725 0.795190
v -0.841984 2.317801 0.961690
v -0.841984 2.317801 -0.940876
v 0.841984 2.317801 -0.940876
v 0.841984 2.317801 0.961690
v -0.525863 3.175698 0.648191
v -0.525863 3.175698 -0.641992
v 0.525863 3.175698 0.648191
v 0.525863 3.175698 -0.641992
v 0.000000 2.747016 0.707552
v 0.000000 2.592825 2.066628
v 0.292021 2.626057 0.707552
v 0.182991 2.517027 2.066628
v 0.412980 2.334036 0.707552
v 0.258788 2.334036 2.066628
v 0.292021 2.042015 0.707552
v 0.182991 2.151045 2.066628
v 0.000000 1.921056 0.707552
v 0.000000 2.075248 2.066628
v -0.292021 2.042015 0.707552
v -0.182991 2.151045 2.066628
v -0.412980 2.334036 0.707552
v -0.258788 2.334036 2.066628
v -0.292021 2.626057 0.707552
v -0.182991 2.517027 2.066628
v 0.292021 2.626057 2.066628
v 0.000000 2.747016 2.066628
v 0.412980 2.334036 2.066628
v 0.292021 2.042015 2.066628
v 0.000000 1.921056 2.066628
v -0.292021 2.042015 2.066628
v -0.412980 2.334036 2.066628
v -0.292021 2.626057 2.066628
v 0.182991 2.517027 1.700533
v 0.000000 2.592825 1.700533
v 0.258788 2.334036 1.700533
v 0.182991 2.151045 1.700533
v 0.000000 2.075248 1.700533
v -0.182991 2.151045 1.700533
v -0.258788 2.334036 1.700533
v -0.182991 2.517027 1.700533
v -0.525863 2.717621 0.648191
v -0.525863 2.717621 -0.641992
v 0.525863 2.717621 -0.641992
v 0.525863 2.717621 0.648191
vn 0.9808 -0.0000 -0.1951
vn -0.9808 -0.0000 0.1951
vn 0.9808 -0.0000 0.1951
vn -0.9808 -0.0000 -0.1951
vn 0.8315 -0.0000 0.5556
vn -0.8315 -0.0000 -0.5556
vn 0.5556 -0.0000 0.8315
vn -0.5556 -0.0000 -0.8315
vn 0.1951 -0.0000 0.9808
vn 0.1951 -0.0000 -0.9808
vn -0.1951 -0.0000 -0.9808
vn -0.1951 -0.0000 0.9808
vn 0.5556 -0.0000 -0.8315
vn -0.5556 -0.0000 0.8315
vn 0.8315 -0.0000 -0.5556
vn -0.8315 -0.0000 0.5556
vn -0.9716 0.2366 -0.0000
vn -0.0000 0.2653 -0.9642
vn 0.9716 0.2366 -0.0000
vn -0.0000 0.2653 0.9642
vn -0.0000 1.0000 -0.0000
vn -0.0000 -1.0000 -0.0000
vn -0.0000 -0.2653 0.9642
vn 0.9716 -0.2366 -0.0000
vn -0.0000 -0.2653 -0.9642
vn -0.9716 -0.2366 -0.0000
vn -1.0000 -0.0000 -0.0000
vn -0.0000 -0.0000 -1.0000
vn 1.0000 -0.0000 -0.0000
vn -0.0000 -0.0000 1.0000
vn 0.3827 0.9239 -0.0000
vn 0.9239 0.3827 -0.0000
vn 0.9239 -0.3827 -0.0000
vn 0.3827 -0.9239 -0.0000
vn -0.3827 -0.9239 -0.0000
vn -0.9239 -0.3827 -0.0000
vn -0.9239 0.3827 -0.0000
vn -0.3827 0.9239 -0.0000
vt 0.568677 0.854087
vt 0.531859 0.854087
vt 0.531859 0.605925
vt 0.568677 0.605925
vt 0.875739 0.248162
vt 0.838921 0.248162
vt 0.838921 0.000000
vt 0.875739 0.000000
vt 0.604642 0.854087
vt 0.604642 0.605925
vt 0.911704 0.248162
vt 0.911704 0.000000
vt 0.634278 0.854087
vt 0.634278 0.605925
vt 0.034339 0.906205
vt 0.000000 0.906205
vt 0.000000 0.658043
vt 0.034339 0.658043
vt 0.360399 0.885195
vt 0.329494 0.885195
vt 0.329494 0.637034
vt 0.360399 0.637034
vt 0.071508 0.906205
vt 0.071508 0.658043
vt 0.396853 0.885195
vt 0.396853 0.637034
vt 0.132130 0.906205
vt 0.105847 0.906205
vt 0.105847 0.658043
vt 0.132130 0.658043
vt 0.433308 0.885195
vt 0.433308 0.637034
vt 0.499793 0.854087
vt 0.477362 0.854087
vt 0.477362 0.605925
vt 0.499793 0.605925
vt 0.464212 0.885195
vt 0.464212 0.637034
vt 0.806856 0.248162
vt 0.806856 0.000000
vt 0.111119 0.348792
vt 0.000000 0.319859
vt 0.000000 0.032115
vt 0.111119 0.000000
vt 0.588481 0.605925
vt 0.477362 0.600410
vt 0.477362 0.388282
vt 0.588481 0.348792
vt 0.333357 0.348792
vt 0.222238 0.319859
vt 0.222238 0.032115
vt 0.333357 -0.000000
vt 0.111119 0.658043
vt 0.000000 0.630980
vt 0.000000 0.375855
vt 0.111119 0.348792
vt 0.477362 0.637034
vt 0.222238 0.637034
vt 0.222238 0.348792
vt 0.477362 0.348792
vt 0.699600 -0.000000
vt 0.699600 0.288242
vt 0.444476 0.288242
vt 0.444476 -0.000000
vt 0.222238 0.630980
vt 0.222238 0.375855
vt 0.444476 0.319859
vt 0.444476 0.032115
vt 0.699600 0.600410
vt 0.699600 0.388282
vt 0.890980 0.775229
vt 0.806856 0.775229
vt 0.806856 0.538704
vt 0.890980 0.538704
vt 0.783723 0.948884
vt 0.699600 0.948884
vt 0.699600 0.788291
vt 0.783723 0.788291
vt 0.216253 0.894569
vt 0.132130 0.894569
vt 0.216253 0.658043
vt 0.890980 0.968373
vt 0.806856 0.968373
vt 0.806856 0.775229
vt 0.890980 0.775229
vt 1.000000 0.487397
vt 0.806856 0.487397
vt 0.806856 0.250461
vt 1.000000 0.250461
vt 0.275866 0.886621
vt 0.275866 0.637034
vt 0.329494 0.886621
vt 0.806856 0.000000
vt 0.806856 0.249155
vt 0.753228 0.250461
vt 0.753228 0.001306
vt 0.699600 0.249155
vt 0.699600 0.000000
vt 0.699600 0.788291
vt 0.699600 0.538704
vt 0.753228 0.538704
vt 0.753228 0.788291
vt 0.806856 0.538704
vt 0.806856 0.788291
vt 0.806856 0.289549
vt 0.806856 0.538704
vt 0.753228 0.537397
vt 0.753228 0.288242
vt 0.924585 0.538704
vt 0.958190 0.538704
vt 0.958190 0.605935
vt 0.924585 0.605935
vt 0.699600 0.538704
vt 0.699600 0.289549
vt 0.222238 0.886621
vt 0.222238 0.637034
vt 0.503523 0.905968
vt 0.503523 0.942342
vt 0.477362 0.953178
vt 0.477362 0.895132
vt 0.529244 0.968062
vt 0.518407 0.994223
vt 0.565618 0.968062
vt 0.576454 0.994223
vt 0.591338 0.942342
vt 0.617499 0.953178
vt 0.591338 0.905968
vt 0.617499 0.895132
vt 0.565618 0.880248
vt 0.576454 0.854087
vt 0.529244 0.880248
vt 0.518407 0.854087
vt 0.329494 0.947290
vt 0.329494 0.910916
vt 0.355214 0.885195
vt 0.391588 0.885195
vt 0.417309 0.910916
vt 0.417309 0.947290
vt 0.391589 0.973010
vt 0.355214 0.973010
vt 0.651104 0.854905
vt 0.684710 0.854087
vt 0.684710 0.921202
vt 0.651104 0.922020
vt 0.924585 0.605935
vt 0.958190 0.605935
vt 0.958190 0.673166
vt 0.924585 0.673166
vt 0.255843 0.954554
vt 0.222238 0.953736
vt 0.222238 0.886621
vt 0.255843 0.887439
vt 0.617499 0.854087
vt 0.617499 0.921202
vt 0.890980 0.605935
vt 0.890980 0.673166
vt 0.289449 0.953736
vt 0.289449 0.886621
vt 0.890980 0.538704
vt 0.890980 0.605935
s 0
usemtl Tower1
f 5/1/1 4/2/1 20/3/1 21/4/1
f 13/5/2 12/6/2 28/7/2 29/8/2
f 6/9/3 5/1/3 21/4/3 22/10/3
f 14/11/4 13/5/4 29/8/4 30/12/4
f 7/13/5 6/9/5 22/10/5 23/14/5
f 15/15/6 14/16/6 30/17/6 31/18/6
f 8/19/7 7/20/7 23/21/7 24/22/7
f 16/23/8 15/15/8 31/18/8 32/24/8
f 9/25/9 8/19/9 24/22/9 25/26/9
f 2/27/10 1/28/10 18/29/10 17/30/10
f 1/28/11 16/23/11 32/24/11 18/29/11
f 10/31/12 9/25/12 25/26/12 26/32/12
f 3/33/13 2/34/13 17/35/13 19/36/13
f 11/37/14 10/31/14 26/32/14 27/38/14
f 4/2/15 3/33/15 19/36/15 20/3/15
f 12/6/16 11/39/16 27/40/16 28/7/16
f 41/41/17 33/42/17 34/43/17 42/44/17
f 42/45/18 34/46/18 36/47/18 43/48/18
f 43/49/19 36/50/19 35/51/19 44/52/19
f 44/53/20 35/54/20 33/55/20 41/56/20
f 36/57/21 34/58/21 33/59/21 35/60/21
f 38/61/22 37/62/22 39/63/22 40/64/22
f 40/65/23 44/53/23 41/56/23 38/66/23
f 39/67/24 43/49/24 44/52/24 40/68/24
f 37/69/25 42/45/25 43/48/25 39/70/25
f 38/50/26 41/41/26 42/44/26 37/51/26
f 81/71/27 45/72/27 46/73/27 82/74/27
f 82/75/28 46/76/28 48/77/28 83/78/28
f 83/79/29 48/80/29 47/30/29 84/81/29
f 84/82/30 47/83/30 45/84/30 81/85/30
f 48/86/21 46/87/21 45/88/21 47/89/21
f 49/90/31 66/91/31 65/21/31 51/92/31
f 51/93/32 65/94/32 67/95/32 53/96/32
f 53/96/33 67/95/33 68/97/33 55/98/33
f 55/99/34 68/100/34 69/101/34 57/102/34
f 57/102/35 69/101/35 70/103/35 59/104/35
f 59/105/36 70/106/36 71/107/36 61/108/36
f 50/109/34 64/110/34 80/111/34 74/112/34
f 61/108/37 71/107/37 72/113/37 63/114/37
f 63/115/38 72/116/38 66/91/38 49/90/38
f 50/117/30 52/118/30 65/119/30 66/120/30
f 52/118/30 54/121/30 67/122/30 65/119/30
f 54/121/30 56/123/30 68/124/30 67/122/30
f 56/123/30 58/125/30 69/126/30 68/124/30
f 58/125/30 60/127/30 70/128/30 69/126/30
f 60/127/30 62/129/30 71/130/30 70/128/30
f 62/129/30 64/131/30 72/132/30 71/130/30
f 64/131/30 50/117/30 66/120/30 72/132/30
f 73/133/30 74/134/30 80/135/30 79/136/30 78/137/30 77/138/30 76/139/30 75/140/30
f 62/141/32 60/142/32 78/143/32 79/144/32
f 58/145/38 56/146/38 76/147/38 77/148/38
f 54/149/36 52/150/36 73/151/36 75/152/36
f 64/153/33 62/141/33 79/144/33 80/154/33
f 60/155/31 58/145/31 77/148/31 78/156/31
f 56/157/37 54/149/37 75/152/37 76/158/37
f 52/159/35 50/109/35 74/112/35 73/160/35
