# Blender 4.0.2
# www.blender.org
mtllib tower2.mtl
o Tower1
v -0.000000 0.405891 -0.518719
v 0.198505 0.405891 -0.479234
v 0.366790 0.405891 -0.366790
v 0.479234 0.405891 -0.198505
v 0.518719 0.405891 0.000000
v 0.479234 0.405891 0.198505
v 0.366790 0.405891 0.366790
v 0.198505 0.405891 0.479234
v -0.000000 0.405891 0.518719
v -0.198505 0.405891 0.479234
v -0.366790 0.405891 0.366790
v -0.479234 0.405891 0.198505
v -0.518719 0.405891 0.000000
v -0.479234 0.405891 -0.198505
v -0.366790 0.405891 -0.366790
v -0.198505 0.405891 -0.479234
v 0.198505 1.757205 -0.479234
v 0.000000 1.757205 -0.518719
v 0.366790 1.757205 -0.366790
v 0.479234 1.757205 -0.198505
v 0.518719 1.757205 0.000000
v 0.479234 1.757205 0.198505
v 0.366790 1.757205 0.366790
v 0.198505 1.757205 0.479234
v 0.000000 1.757205 0.518719
v -0.198505 1.757205 0.479234
v -0.366790 1.757205 0.366790
v -0.479234 1.757205 0.198505
v -0.518719 1.757205 0.000000
v -0.479234 1.757205 -0.198505
v -0.366790 1.757205 -0.366790
v -0.198505 1.757205 -0.479234
v -0.694614 3.626484 0.795190
v -0.694614 3.626484 -0.774376
v 0.694614 3.626484 0.795190
v 0.694614 3.626484 -0.774376
v -0.694614 1.712725 -0.774376
v -0.694614 1.712725 0.795190
v 0.694614 1.712725 -0.774376
v 0.694614 1.712725 0.795190
v -0.841984 2.317801 0.961690
v -0.841984 2.317801 -0.940876
v 0.841984 2.317801 -0.940876
v 0.841984 2.317801 0.961690
v -0.525863 3.991976 0.648191
v -0.525863 3.991976 -0.641992
v 0.525863 3.991976 0.648191
v 0.525863 3.991976 -0.641992
v 0.000000 2.747016 0.707552
v 0.000000 2.592825 2.066628
v 0.292021 2.626057 0.707552
v 0.182991 2.517027 2.066628
v 0.412980 2.334036 0.707552
v 0.258788 2.334036 2.066628
v 0.292021 2.042015 0.707552
v 0.182991 2.151045 2.066628
v 0.000000 1.921056 0.707552
v 0.000000 2.075248 2.066628
v -0.292021 2.042015 0.707552
v -0.182991 2.151045 2.066628
v -0.412980 2.334036 0.707552
v -0.258788 2.334036 2.066628
v -0.292021 2.626057 0.707552
v -0.182991 2.517027 2.066628
v 0.292021 2.626057 2.066628
v 0.000000 2.747016 2.066628
v 0.412980 2.334036 2.066628
v 0.292021 2.042015 2.066628
v 0.000000 1.921056 2.066628
v -0.292021 2.042015 2.066628
v -0.412980 2.334036 2.066628
v -0.292021 2.626057 2.066628
v 0.182991 2.517027 1.700533
v 0.000000 2.592825 1.700533
v 0.258788 2.334036 1.700533
v 0.182991 2.151045 1.700533
v 0.000000 2.075248 1.700533
v -0.182991 2.151045 1.700533
v -0.258788 2.334036 1.700533
v -0.182991 2.517027 1.700533
v -0.525863 3.533899 0.648191
v -0.525863 3.533899 -0.641992
v 0.525863 3.533899 -0.641992
v 0.525863 3.533899 0.648191
v 0.000000 3.530992 0.707552
v 0.000000 3.376801 2.433823
v 0.292021 3.410033 0.707552
v 0.182991 3.301003 2.433823
v 0.412980 3.118012 0.707552
v 0.258788 3.118012 2.433823
v 0.292021 2.825991 0.707552
v 0.182991 2.935021 2.433823
v 0.000000 2.705032 0.707552
v 0.000000 2.859224 2.433823
v -0.292021 2.825991 0.707552
v -0.182991 2.935021 2.433823
v -0.412980 3.118012 0.707552
v -0.258788 3.118012 2.433823
v -0.292021 3.410033 0.707552
v -0.182991 3.301003 2.433823
v 0.292021 3.410033 2.433823
v 0.000000 3.530992 2.433823
v 0.412980 3.118012 2.433823
v 0.292021 2.825991 2.433823
v 0.000000 2.705032 2.433823
v -0.292021 2.825991 2.433823
v -0.412980 3.118012 2.433823
v -0.292021 3.410033 2.433823
v 0.182991 3.301003 1.700533
v 0.000000 3.376801 1.700533
v 0.258788 3.118012 1.700533
v 0.182991 2.935021 1.700533
v 0.000000 2.859224 1.700533
v -0.182991 2.935021 1.700533
v -0.258788 3.118012 1.700533
v -0.182991 3.301003 1.700533
vn 0.9808 -0.0000 -0.1951
vn -0.9808 -0.0000 0.1951
vn 0.9808 -0.0000 0.1951
vn -0.9808 -0.0000 -0.1951
vn 0.8315 -0.0000 0.5556
vn -0.8315 -0.0000 -0.5556
vn 0.5556 -0.0000 0.8315
vn -0.5556 -0.0000 -0.8315
vn 0.1951 -0.0000 0.9808
vn 0.1951 -0.0000 -0.9808
vn -0.1951 -0.0000 -0.9808
vn -0.1951 -0.0000 0.9808
vn 0.5556 -0.0000 -0.8315
vn -0.5556 -0.0000 0.8315
vn 0.8315 -0.0000 -0.5556
vn -0.8315 -0.0000 0.5556
vn -0.9937 0.1119 -0.0000
vn -0.0000 0.1262 -0.9920
vn 0.9937 0.1119 -0.0000
vn -0.0000 0.1262 0.9920
vn -0.0000 1.0000 -0.0000
vn -0.0000 -1.0000 -0.0000
vn -0.0000 -0.2653 0.9642
vn 0.9716 -0.2366 -0.0000
vn -0.0000 -0.2653 -0.9642
vn -0.9716 -0.2366 -0.0000
vn -1.0000 -0.0000 -0.0000
vn -0.0000 -0.0000 -1.0000
vn 1.0000 -0.0000 -0.0000
vn -0.0000 -0.0000 1.0000
vn 0.3827 0.9239 -0.0000
vn 0.9239 0.3827 -0.0000
vn 0.9239 -0.3827 -0.0000
vn 0.3827 -0.9239 -0.0000
vn -0.3827 -0.9239 -0.0000
vn -0.9239 -0.3827 -0.0000
vn -0.9239 0.3827 -0.0000
vn -0.3827 0.9239 -0.0000
vt 0.757463 0.504417
vt 0.726794 0.504478
vt 0.726794 0.295716
vt 0.757463 0.295654
vt 0.170003 0.800080
vt 0.139335 0.800142
vt 0.139335 0.591379
vt 0.170003 0.591318
vt 0.788131 0.504478
vt 0.788131 0.295716
vt 0.200672 0.800142
vt 0.200672 0.591379
vt 0.814131 0.504654
vt 0.814131 0.295892
vt 0.226671 0.800318
vt 0.226671 0.591555
vt 0.760965 0.771163
vt 0.734966 0.771269
vt 0.734966 0.562499
vt 0.760965 0.562394
vt 0.025999 0.800180
vt 0.000000 0.800671
vt 0.000000 0.591981
vt 0.025999 0.591490
vt 0.791633 0.771126
vt 0.791633 0.562357
vt 0.087336 0.800180
vt 0.056668 0.800008
vt 0.056668 0.591318
vt 0.087336 0.591490
vt 0.822302 0.771163
vt 0.822302 0.562394
vt 0.113336 0.800671
vt 0.113336 0.591981
vt 0.848301 0.771269
vt 0.848301 0.562499
vt 0.700795 0.504654
vt 0.700795 0.295892
vt 0.113336 0.800318
vt 0.113336 0.591555
vt 0.000000 0.201946
vt 0.025724 0.000000
vt 0.268216 0.000000
vt 0.293940 0.201946
vt 0.260167 0.497033
vt 0.282935 0.295654
vt 0.497566 0.295654
vt 0.520335 0.497033
vt 0.319664 0.000000
vt 0.562156 0.000000
vt 0.587880 0.201946
vt 0.000000 0.497681
vt 0.022768 0.295654
vt 0.237399 0.295654
vt 0.260167 0.497681
vt 0.734966 0.804849
vt 0.520335 0.804849
vt 0.520335 0.562357
vt 0.734966 0.562357
vt 0.474798 0.591205
vt 0.474798 0.833697
vt 0.260167 0.833697
vt 0.260167 0.591205
vt 0.022768 0.591318
vt 0.237399 0.591318
vt 0.319664 0.295654
vt 0.562156 0.295654
vt 0.282935 0.591205
vt 0.497566 0.591205
vt 0.025724 0.295654
vt 0.268216 0.295654
vt 0.805733 0.970598
vt 0.734966 0.970598
vt 0.734965 0.771269
vt 0.805733 0.771269
vt 0.591078 0.967337
vt 0.520335 0.967337
vt 0.520335 0.804849
vt 0.591078 0.804849
vt 0.919069 0.971658
vt 0.848301 0.971658
vt 0.848301 0.772329
vt 0.919069 0.772329
vt 0.233258 0.963159
vt 0.162488 0.963159
vt 0.162488 0.800671
vt 0.233258 0.800671
vt 0.162488 1.000000
vt 0.000000 1.000000
vt 0.000000 0.800671
vt 0.162488 0.800671
vt 0.813456 0.209973
vt 0.813456 0.000000
vt 0.858573 0.000000
vt 0.858573 0.209973
vt 0.848301 0.562357
vt 0.893226 0.562357
vt 0.893226 0.772329
vt 0.938529 0.562357
vt 0.938529 0.772329
vt 0.814131 0.505626
vt 0.814131 0.295654
vt 0.859247 0.295654
vt 0.859247 0.505626
vt 0.904363 0.295654
vt 0.904363 0.505626
vt 0.948801 -0.000000
vt 0.948801 0.209973
vt 0.903497 0.209973
vt 0.903497 0.000000
vt 0.729066 0.504654
vt 0.757338 0.504654
vt 0.757338 0.561215
vt 0.729066 0.561215
vt 0.858573 0.000000
vt 0.768340 0.209973
vt 0.768340 0.000000
vt 0.282176 0.907945
vt 0.303813 0.929583
vt 0.294697 0.951591
vt 0.260167 0.917061
vt 0.334414 0.929583
vt 0.343530 0.951592
vt 0.356052 0.907946
vt 0.378060 0.917062
vt 0.356051 0.877345
vt 0.378060 0.868229
vt 0.334414 0.855707
vt 0.343530 0.833698
vt 0.303813 0.855706
vt 0.294697 0.833697
vt 0.282176 0.877344
vt 0.260167 0.868227
vt 0.768340 0.262211
vt 0.768341 0.231611
vt 0.789979 0.209973
vt 0.820579 0.209973
vt 0.842216 0.231611
vt 0.842216 0.262211
vt 0.820578 0.283849
vt 0.789978 0.283849
vt 0.842519 0.505626
vt 0.870671 0.505626
vt 0.870671 0.562187
vt 0.842519 0.562187
vt 0.785609 0.504654
vt 0.813881 0.504654
vt 0.813881 0.561215
vt 0.785609 0.561215
vt 0.944481 0.266533
vt 0.916093 0.266533
vt 0.916093 0.209973
vt 0.944481 0.209973
vt 0.814131 0.562187
vt 0.757338 0.504654
vt 0.757338 0.561215
vt 0.972633 0.266533
vt 0.972633 0.209973
vt 0.700795 0.504654
vt 0.700795 0.561215
vt 0.632996 0.266703
vt 0.632996 0.000000
vt 0.678112 0.000000
vt 0.678112 0.266703
vt 0.610567 0.562357
vt 0.610567 0.295654
vt 0.655492 0.295654
vt 0.655492 0.562357
vt 0.700795 0.295654
vt 0.700795 0.562357
vt 0.520335 0.562357
vt 0.520335 0.295654
vt 0.565451 0.295654
vt 0.565451 0.562357
vt 0.610567 0.295654
vt 0.768340 -0.000000
vt 0.768340 0.266703
vt 0.723037 0.266703
vt 0.723037 0.000000
vt 0.406331 0.833697
vt 0.434603 0.833697
vt 0.434603 0.946988
vt 0.406331 0.946988
vt 0.678112 0.266703
vt 0.678112 0.000000
vt 0.587880 0.266703
vt 0.587880 0.000000
vt 0.613086 0.848497
vt 0.613086 0.879098
vt 0.591078 0.888214
vt 0.591078 0.839381
vt 0.634724 0.900735
vt 0.625607 0.922744
vt 0.665324 0.900735
vt 0.674440 0.922744
vt 0.686962 0.879097
vt 0.708970 0.888213
vt 0.686962 0.848496
vt 0.708970 0.839379
vt 0.665324 0.826858
vt 0.674440 0.804850
vt 0.634724 0.826859
vt 0.625607 0.804850
vt 0.842216 0.262211
vt 0.842217 0.231610
vt 0.863855 0.209973
vt 0.894455 0.209973
vt 0.916092 0.231610
vt 0.916092 0.262211
vt 0.894454 0.283849
vt 0.863854 0.283849
vt 0.932752 0.295654
vt 0.960903 0.295654
vt 0.960903 0.408945
vt 0.932752 0.408945
vt 0.462874 0.833697
vt 0.491146 0.833697
vt 0.491146 0.946988
vt 0.462874 0.946988
vt 0.932752 0.522236
vt 0.904363 0.522236
vt 0.904363 0.408945
vt 0.932752 0.408945
vt 0.904363 0.408945
vt 0.434603 0.833697
vt 0.434603 0.946988
vt 0.960903 0.522236
vt 0.378060 0.833697
vt 0.378060 0.946988
s 0
usemtl Tower1
f 5/1/1 4/2/1 20/3/1 21/4/1
f 13/5/2 12/6/2 28/7/2 29/8/2
f 6/9/3 5/1/3 21/4/3 22/10/3
f 14/11/4 13/5/4 29/8/4 30/12/4
f 7/13/5 6/9/5 22/10/5 23/14/5
f 15/15/6 14/11/6 30/12/6 31/16/6
f 8/17/7 7/18/7 23/19/7 24/20/7
f 16/21/8 15/22/8 31/23/8 32/24/8
f 9/25/9 8/17/9 24/20/9 25/26/9
f 2/27/10 1/28/10 18/29/10 17/30/10
f 1/28/11 16/21/11 32/24/11 18/29/11
f 10/31/12 9/25/12 25/26/12 26/32/12
f 3/33/13 2/27/13 17/30/13 19/34/13
f 11/35/14 10/31/14 26/32/14 27/36/14
f 4/2/15 3/37/15 19/38/15 20/3/15
f 12/6/16 11/39/16 27/40/16 28/7/16
f 41/41/17 33/42/17 34/43/17 42/44/17
f 42/45/18 34/46/18 36/47/18 43/48/18
f 43/44/19 36/49/19 35/50/19 44/51/19
f 44/52/20 35/53/20 33/54/20 41/55/20
f 36/56/21 34/57/21 33/58/21 35/59/21
f 38/60/22 37/61/22 39/62/22 40/63/22
f 40/64/23 44/52/23 41/55/23 38/65/23
f 39/66/24 43/44/24 44/51/24 40/67/24
f 37/68/25 42/45/25 43/48/25 39/69/25
f 38/70/26 41/41/26 42/44/26 37/71/26
f 81/72/27 45/73/27 46/74/27 82/75/27
f 82/76/28 46/77/28 48/78/28 83/79/28
f 83/80/29 48/81/29 47/82/29 84/83/29
f 84/84/30 47/85/30 45/86/30 81/87/30
f 48/88/21 46/89/21 45/90/21 47/91/21
f 49/92/31 66/93/31 65/94/31 51/95/31
f 51/82/32 65/96/32 67/97/32 53/98/32
f 53/98/33 67/97/33 68/99/33 55/100/33
f 55/101/34 68/102/34 69/103/34 57/104/34
f 57/104/35 69/103/35 70/105/35 59/106/35
f 59/107/36 70/108/36 71/109/36 61/110/36
f 50/111/34 64/112/34 80/113/34 74/114/34
f 61/110/37 71/109/37 72/95/37 63/115/37
f 63/116/38 72/117/38 66/93/38 49/92/38
f 50/118/30 52/119/30 65/120/30 66/121/30
f 52/119/30 54/122/30 67/123/30 65/120/30
f 54/122/30 56/124/30 68/125/30 67/123/30
f 56/124/30 58/126/30 69/127/30 68/125/30
f 58/126/30 60/128/30 70/129/30 69/127/30
f 60/128/30 62/130/30 71/131/30 70/129/30
f 62/130/30 64/132/30 72/133/30 71/131/30
f 64/132/30 50/118/30 66/121/30 72/133/30
f 73/134/30 74/135/30 80/136/30 79/137/30 78/138/30 77/139/30 76/140/30 75/141/30
f 62/142/32 60/143/32 78/144/32 79/145/32
f 58/146/38 56/147/38 76/148/38 77/149/38
f 54/150/36 52/151/36 73/152/36 75/153/36
f 64/101/33 62/142/33 79/145/33 80/154/33
f 60/155/31 58/146/31 77/149/31 78/156/31
f 56/157/37 54/150/37 75/153/37 76/158/37
f 52/159/35 50/111/35 74/114/35 73/160/35
f 85/161/31 102/162/31 101/163/31 87/164/31
f 87/165/32 101/166/32 103/167/32 89/168/32
f 89/168/33 103/167/33 104/169/33 91/170/33
f 91/171/34 104/172/34 105/173/34 93/174/34
f 93/174/35 105/173/35 106/175/35 95/165/35
f 95/176/36 106/177/36 107/178/36 97/179/36
f 86/180/34 100/181/34 116/182/34 110/183/34
f 97/179/37 107/178/37 108/184/37 99/185/37
f 99/186/38 108/187/38 102/162/38 85/161/38
f 86/188/30 88/189/30 101/190/30 102/191/30
f 88/189/30 90/192/30 103/193/30 101/190/30
f 90/192/30 92/194/30 104/195/30 103/193/30
f 92/194/30 94/196/30 105/197/30 104/195/30
f 94/196/30 96/198/30 106/199/30 105/197/30
f 96/198/30 98/200/30 107/201/30 106/199/30
f 98/200/30 100/202/30 108/203/30 107/201/30
f 100/202/30 86/188/30 102/191/30 108/203/30
f 109/204/30 110/205/30 116/206/30 115/207/30 114/208/30 113/209/30 112/210/30 111/211/30
f 98/212/32 96/213/32 114/214/32 115/215/32
f 94/216/38 92/217/38 112/218/38 113/219/38
f 90/220/36 88/221/36 109/222/36 111/223/36
f 100/105/33 98/212/33 115/215/33 116/224/33
f 96/225/31 94/216/31 113/219/31 114/226/31
f 92/227/37 90/220/37 111/223/37 112/214/37
f 88/228/35 86/180/35 110/183/35 109/229/35
